<svg width="64" height="64" viewBox="0 0 64 64" fill="none" xmlns="http://www.w3.org/2000/svg">
<g id="Placeholder Logo">
<path id="Vector" d="M64 32C64 23.5131 60.6286 15.3737 54.6274 9.37259C48.6263 3.37142 40.4869 6.40745e-07 32 0C23.5131 -6.40745e-07 15.3738 3.37142 9.37259 9.37258C3.37142 15.3737 1.28149e-06 23.5131 0 32L32 32H64Z" fill="#818CF8"/>
<path id="Vector_2" d="M0 32C-7.41951e-07 40.4869 3.37142 48.6263 9.37258 54.6274C15.3737 60.6286 23.5131 64 32 64C40.4869 64 48.6263 60.6286 54.6274 54.6274C60.6286 48.6263 64 40.4869 64 32L32 32L0 32Z" fill="#4F46E5"/>
</g>
</svg>
